<?xml version="1.0" encoding="UTF-8"?>
<svg xmlns="http://www.w3.org/2000/svg" xmlns:xlink="http://www.w3.org/1999/xlink" viewBox="0 0 24 24" width="24px" height="24px">
<g id="surface160228137">
<path style=" stroke:none;fill-rule:nonzero;fill:rgb(100%,100%,100%);fill-opacity:1;" d="M 4.910156 4 C 3.859375 4 3 4.859375 3 5.910156 L 3 14.089844 C 3 15.140625 3.859375 16 4.910156 16 L 19.089844 16 C 20.140625 16 21 15.140625 21 14.089844 L 21 5.910156 C 21 4.859375 20.140625 4 19.089844 4 Z M 7 7 L 17 7 L 17 9 L 7 9 Z M 7 11 L 14 11 L 14 13 L 7 13 Z M 2 18 L 2 20 L 22 20 L 22 18 Z M 2 18 "/>
</g>
</svg>
